<svg width="40" height="40" viewBox="0 0 40 40" fill="none" xmlns="http://www.w3.org/2000/svg">
<path d="M5 5H5.44724C6.23688 5 6.63204 5 6.9541 5.14246C7.23806 5.26807 7.48118 5.4705 7.65625 5.72693C7.85482 6.01777 7.92631 6.40611 8.06966 7.18262L11.6667 26.6667L29.0325 26.6667C29.7899 26.6667 30.1693 26.6666 30.4827 26.533C30.759 26.4151 30.9981 26.2247 31.1751 25.9819C31.3758 25.7067 31.4605 25.3376 31.6309 24.5995L34.2462 13.2662C34.5037 12.1504 34.6327 11.5927 34.4911 11.1544C34.3669 10.7701 34.1066 10.4439 33.76 10.2365C33.3648 10 32.793 10 31.6479 10H9.16667M30 35C29.0795 35 28.3333 34.2538 28.3333 33.3333C28.3333 32.4129 29.0795 31.6667 30 31.6667C30.9205 31.6667 31.6667 32.4129 31.6667 33.3333C31.6667 34.2538 30.9205 35 30 35ZM13.3333 35C12.4129 35 11.6667 34.2538 11.6667 33.3333C11.6667 32.4129 12.4129 31.6667 13.3333 31.6667C14.2538 31.6667 15 32.4129 15 33.3333C15 34.2538 14.2538 35 13.3333 35Z" stroke="#505050" stroke-width="2" stroke-linecap="round" stroke-linejoin="round"/>
</svg>
