<svg width="40" height="40" viewBox="0 0 40 40" fill="none" xmlns="http://www.w3.org/2000/svg">
<path d="M24.1618 7.09536C24.668 5.82984 25.8937 5 27.2567 5H31.8421C33.5862 5 35 6.4139 35 8.15796C35 22.9824 22.982 34.9999 8.15755 34.9999C6.4135 34.9999 5 33.5863 5 31.8422L5.00018 27.2567C5.00018 25.8937 5.83014 24.6681 7.09567 24.1619L11.4881 22.4048C12.6249 21.9501 13.9191 22.155 14.8597 22.9388L15.9949 23.8845C17.3193 24.9882 19.2667 24.9 20.4858 23.6809L23.6811 20.4858C24.9001 19.2668 24.988 17.3192 23.8843 15.9948L22.9386 14.86C22.1548 13.9194 21.95 12.6249 22.4047 11.4881L24.1618 7.09536Z" stroke="#0B0B0B" stroke-width="2" stroke-linecap="round" stroke-linejoin="round"/>
</svg>
