<svg width="30" height="30" viewBox="0 0 30 30" fill="none" xmlns="http://www.w3.org/2000/svg">
<path d="M18.1213 5.32152L17.1928 4.95014L17.1928 4.95013L18.1213 5.32152ZM16.8035 8.61608L17.732 8.98747L17.732 8.98747L16.8035 8.61608ZM17.204 11.145L17.9722 10.5048L17.9722 10.5048L17.204 11.145ZM17.9132 11.9961L17.145 12.6363L17.145 12.6363L17.9132 11.9961ZM17.7608 15.3644L18.4679 16.0715L18.4679 16.0715L17.7608 15.3644ZM15.3643 17.7607L14.6572 17.0536L14.6572 17.0535L15.3643 17.7607ZM11.9962 17.9134L12.6362 17.1451L12.6363 17.1452L11.9962 17.9134ZM11.1448 17.2041L10.5047 17.9725L10.5046 17.9724L11.1448 17.2041ZM8.61608 16.8036L8.24467 15.8751L8.24469 15.8751L8.61608 16.8036ZM5.32176 18.1214L5.69317 19.0499L5.69315 19.0499L5.32176 18.1214ZM3.75013 20.4425L4.75013 20.4425L4.75013 20.4426L3.75013 20.4425ZM3.75 23.8817L2.75 23.8817L2.75 23.8816L3.75 23.8817ZM20.4425 4.75C19.8291 4.75 19.2776 5.12343 19.0498 5.69291L17.1928 4.95013C17.7244 3.62133 19.0113 2.75 20.4425 2.75V4.75ZM19.0498 5.69291L17.732 8.98747L15.875 8.24469L17.1928 4.95014L19.0498 5.69291ZM17.732 8.98747C17.5273 9.49915 17.6196 10.0816 17.9722 10.5048L16.4358 11.7851C15.6127 10.7974 15.3976 9.43818 15.875 8.24469L17.732 8.98747ZM17.9722 10.5048L18.6815 11.356L17.145 12.6363L16.4357 11.7851L17.9722 10.5048ZM18.6814 11.3559C19.8401 12.7463 19.7481 14.7913 18.4679 16.0715L17.0537 14.6573C17.6021 14.1089 17.6418 13.2325 17.145 12.6363L18.6814 11.3559ZM18.4679 16.0715L16.0714 18.4678L14.6572 17.0535L17.0537 14.6572L18.4679 16.0715ZM16.0714 18.4678C14.7914 19.7478 12.7466 19.8405 11.356 18.6816L12.6363 17.1452C13.2324 17.6419 14.1087 17.6021 14.6572 17.0536L16.0714 18.4678ZM11.3561 18.6817L10.5047 17.9725L11.7848 16.4358L12.6362 17.1451L11.3561 18.6817ZM10.5046 17.9724C10.0814 17.6197 9.49908 17.5274 8.98747 17.7321L8.24469 15.8751C9.43826 15.3977 10.7973 15.6129 11.7849 16.4359L10.5046 17.9724ZM8.9875 17.7321L5.69317 19.0499L4.95034 17.193L8.24467 15.8751L8.9875 17.7321ZM5.69315 19.0499C5.12356 19.2777 4.75013 19.8293 4.75013 20.4425H2.75013C2.75013 19.0113 3.62166 17.7244 4.95036 17.1929L5.69315 19.0499ZM4.75013 20.4426L4.75 23.8817L2.75 23.8816L2.75013 20.4425L4.75013 20.4426ZM4.75 23.8817C4.75 24.6375 5.36248 25.25 6.11816 25.25V27.25C4.25776 27.25 2.75 25.7419 2.75 23.8817H4.75ZM6.11816 25.25C16.6843 25.25 25.25 16.6845 25.25 6.11847H27.25C27.25 17.7891 17.7888 27.25 6.11816 27.25V25.25ZM25.25 6.11847C25.25 5.36268 24.6373 4.75 23.8816 4.75V2.75C25.7419 2.75 27.25 4.25817 27.25 6.11847H25.25ZM23.8816 4.75H20.4425V2.75H23.8816V4.75Z" fill="#505050"/>
</svg>
