<svg width="30" height="30" viewBox="0 0 30 30" fill="none" xmlns="http://www.w3.org/2000/svg">
<path d="M18.1213 5.32152C18.501 4.37238 19.4202 3.75 20.4425 3.75H23.8816C25.1896 3.75 26.25 4.81043 26.25 6.11847C26.25 17.2368 17.2365 26.25 6.11816 26.25C4.81012 26.25 3.75 25.1897 3.75 23.8817L3.75013 20.4425C3.75013 19.4203 4.37261 18.5011 5.32175 18.1214L8.61608 16.8036C9.46867 16.4626 10.4393 16.6163 11.1448 17.2041L11.9962 17.9134C12.9895 18.7412 14.45 18.675 15.3643 17.7607L17.7608 15.3644C18.6751 14.4501 18.741 12.9894 17.9132 11.9961L17.204 11.145C16.6161 10.4395 16.4625 9.46866 16.8035 8.61608L18.1213 5.32152Z" stroke="#505050" stroke-width="2" stroke-linecap="round" stroke-linejoin="round"/>
</svg>
