<svg width="30" height="30" viewBox="0 0 30 30" fill="none" xmlns="http://www.w3.org/2000/svg">
<path d="M12.1774 16.4082C11.7868 16.7987 11.7868 17.4319 12.1774 17.8224C12.5679 18.2129 13.201 18.2129 13.5916 17.8224L12.1774 16.4082ZM19.6493 11.7647C20.0398 11.3742 20.0398 10.741 19.6493 10.3505C19.2587 9.95995 18.6256 9.95995 18.235 10.3505L19.6493 11.7647ZM25.1389 7.36068L26.0947 7.65477L25.1389 7.36068ZM20.0256 23.9789L20.9814 24.273L20.0256 23.9789ZM16.3252 24.2851L15.4308 24.7324L16.3252 24.2851ZM13.0865 17.8078L12.1921 18.255L13.0865 17.8078ZM12.192 16.9133L11.7448 17.8077L12.192 16.9133ZM5.71466 13.6746L6.16187 12.7802L5.71466 13.6746ZM6.02106 9.97429L5.72697 9.01851L6.02106 9.97429ZM22.6393 4.86099L22.9334 5.81677L22.6393 4.86099ZM3.44476 12.1986L4.36841 11.8154L3.44476 12.1986ZM3.53937 11.0571L2.6913 10.5272L3.53937 11.0571ZM12.8466 17.3801L12.0546 17.9906L12.8466 17.3801ZM12.62 17.1531L12.0095 17.9451H12.0095L12.62 17.1531ZM18.9428 26.4605L18.4129 25.6124L18.9428 26.4605ZM17.8017 26.555L18.185 25.6313H18.185L17.8017 26.555ZM25.5344 5.20828L26.4732 4.86365L25.5344 5.20828ZM24.7915 4.46564L24.4469 5.40438L24.7915 4.46564ZM13.5916 17.8224L19.6493 11.7647L18.235 10.3505L12.1774 16.4082L13.5916 17.8224ZM24.1831 7.0666L19.0698 23.6848L20.9814 24.273L26.0947 7.65477L24.1831 7.0666ZM17.2196 23.8379L13.9809 17.3606L12.1921 18.255L15.4308 24.7324L17.2196 23.8379ZM12.6393 16.0189L6.16187 12.7802L5.26745 14.569L11.7448 17.8077L12.6393 16.0189ZM6.31514 10.9301L22.9334 5.81677L22.3452 3.90521L5.72697 9.01851L6.31514 10.9301ZM6.16187 12.7802C5.44713 12.4228 4.97207 12.1843 4.64769 11.9848C4.29199 11.7661 4.32581 11.7127 4.36841 11.8154L2.52112 12.5819C2.74235 13.1151 3.21406 13.4511 3.60011 13.6885C4.01749 13.9452 4.58806 14.2293 5.26745 14.569L6.16187 12.7802ZM5.72697 9.01851C5.00096 9.2419 4.39143 9.42844 3.93753 9.61299C3.51769 9.78369 2.99716 10.0377 2.6913 10.5272L4.38744 11.587C4.32856 11.6812 4.304 11.623 4.69082 11.4657C5.04357 11.3223 5.55139 11.1651 6.31514 10.9301L5.72697 9.01851ZM4.36841 11.8154C4.33751 11.7409 4.34447 11.6557 4.38744 11.587L2.6913 10.5272C2.30587 11.1441 2.24217 11.9096 2.52112 12.5819L4.36841 11.8154ZM13.9809 17.3606C13.8871 17.173 13.7852 16.9597 13.6386 16.7696L12.0546 17.9906C12.0494 17.9839 12.054 17.9876 12.076 18.0278C12.1017 18.0746 12.1336 18.1381 12.1921 18.255L13.9809 17.3606ZM11.7448 17.8077C11.8621 17.8664 11.9256 17.8983 11.9728 17.9241C12.0132 17.9462 12.0167 17.9506 12.0095 17.9451L13.2305 16.3611C13.0401 16.2143 12.8256 16.1121 12.6393 16.0189L11.7448 17.8077ZM13.6386 16.7696C13.5216 16.6177 13.3849 16.4801 13.2305 16.3611L12.0095 17.9451C12.0253 17.9572 12.0405 17.9723 12.0546 17.9906L13.6386 16.7696ZM19.0698 23.6848C18.8348 24.4486 18.6776 24.9564 18.5342 25.3091C18.3769 25.6959 18.3187 25.6713 18.4129 25.6124L19.4727 27.3086C19.9622 27.0027 20.2162 26.4822 20.3869 26.0624C20.5714 25.6085 20.758 24.999 20.9814 24.273L19.0698 23.6848ZM15.4308 24.7324C15.7705 25.4119 16.0549 25.9825 16.3117 26.3999C16.5493 26.7861 16.8855 27.2575 17.4185 27.4786L18.185 25.6313C18.2874 25.6738 18.2339 25.7074 18.0151 25.3518C17.8156 25.0276 17.5769 24.5525 17.2196 23.8379L15.4308 24.7324ZM18.4129 25.6124C18.3443 25.6553 18.2596 25.6623 18.185 25.6313L17.4185 27.4786C18.0906 27.7575 18.8557 27.6941 19.4727 27.3086L18.4129 25.6124ZM26.0947 7.65477C26.269 7.08826 26.4212 6.59717 26.5048 6.19949C26.5862 5.8125 26.6462 5.33512 26.4732 4.86365L24.5957 5.5529C24.5678 5.47704 24.6103 5.49026 24.5477 5.78778C24.4873 6.0746 24.3692 6.46191 24.1831 7.0666L26.0947 7.65477ZM22.9334 5.81677C23.538 5.63072 23.9253 5.5126 24.212 5.45232C24.5093 5.3898 24.5226 5.43218 24.4469 5.40438L25.1361 3.5269C24.6648 3.35386 24.1876 3.41373 23.8005 3.49511C23.4028 3.57872 22.9118 3.73088 22.3452 3.90521L22.9334 5.81677ZM26.4732 4.86365C26.2453 4.24303 25.756 3.75446 25.1361 3.5269L24.4469 5.40438C24.5162 5.42982 24.5705 5.48437 24.5957 5.5529L26.4732 4.86365Z" fill="#DCDCDC"/>
</svg>
