<svg width="30" height="30" viewBox="0 0 30 30" fill="none" xmlns="http://www.w3.org/2000/svg">
<path d="M12.8845 17.1153L18.9422 11.0576M25.1389 7.36068L20.0256 23.9789C19.5672 25.4687 19.3381 26.2135 18.9428 26.4605C18.6 26.6747 18.1751 26.7099 17.8017 26.555C17.3712 26.3763 17.0222 25.6793 16.3252 24.2851L13.0865 17.8078C12.9759 17.5865 12.9205 17.4759 12.8466 17.3801C12.7811 17.295 12.7051 17.2187 12.62 17.1531C12.5242 17.0792 12.4133 17.0239 12.192 16.9133L5.71466 13.6746C4.32053 12.9776 3.6234 12.6292 3.44476 12.1986C3.28984 11.8253 3.32517 11.3999 3.53937 11.0571C3.78635 10.6618 4.5313 10.4327 6.02106 9.97429L22.6393 4.86099C23.8105 4.50062 24.3959 4.32041 24.7915 4.46564C25.1361 4.59214 25.4079 4.8637 25.5344 5.20828C25.6797 5.60388 25.4992 6.18949 25.1389 7.36068Z" stroke="#9B9B9B" stroke-width="2" stroke-linecap="round" stroke-linejoin="round"/>
</svg>
