<svg width="40" height="40" viewBox="0 0 40 40" fill="none" xmlns="http://www.w3.org/2000/svg">
<path d="M16.4723 22.1133C16.0818 22.5038 16.0818 23.137 16.4723 23.5275C16.8628 23.918 17.496 23.918 17.8865 23.5275L16.4723 22.1133ZM25.9634 15.4506C26.354 15.06 26.354 14.4269 25.9634 14.0363C25.5729 13.6458 24.9397 13.6458 24.5492 14.0363L25.9634 15.4506ZM33.5186 9.81426L34.4744 10.1083L33.5186 9.81426ZM26.7009 31.9719L27.6567 32.266L26.7009 31.9719ZM21.767 32.3802L20.8726 32.8274L21.767 32.3802ZM17.4488 23.7437L16.5543 24.1909L17.4488 23.7437ZM16.2562 22.5511L15.809 23.4455L16.2562 22.5511ZM7.61967 18.2328L8.06688 17.3384L7.61967 18.2328ZM8.0282 13.2991L7.73411 12.3433L8.0282 13.2991ZM30.1858 6.48133L30.4799 7.43711L30.1858 6.48133ZM4.59314 16.2649L5.51678 15.8816L4.59314 16.2649ZM4.71928 14.7428L3.87121 14.2129L4.71928 14.7428ZM17.1289 23.1734L16.3369 23.7839L17.1289 23.1734ZM16.8268 22.8708L16.2163 23.6628L16.8268 22.8708ZM25.2572 35.2807L24.7273 34.4326L25.2572 35.2807ZM23.7358 35.4066L24.119 34.483L23.7358 35.4066ZM34.046 6.94438L34.9848 6.59976L34.046 6.94438ZM33.0555 5.9542L32.7108 6.89294L33.0555 5.9542ZM17.8865 23.5275L25.9634 15.4506L24.5492 14.0363L16.4723 22.1133L17.8865 23.5275ZM32.5628 9.52017L25.7451 31.6778L27.6567 32.266L34.4744 10.1083L32.5628 9.52017ZM22.6615 31.933L18.3432 23.2965L16.5543 24.1909L20.8726 32.8274L22.6615 31.933ZM16.7034 21.6567L8.06688 17.3384L7.17246 19.1273L15.809 23.4455L16.7034 21.6567ZM8.32228 14.2548L30.4799 7.43711L29.8918 5.52555L7.73411 12.3433L8.32228 14.2548ZM8.06688 17.3384C7.11979 16.8649 6.47045 16.5392 6.02245 16.2637C5.54312 15.969 5.50396 15.8507 5.51678 15.8816L3.6695 16.6481C3.9205 17.253 4.46519 17.654 4.97487 17.9674C5.51587 18.3001 6.26071 18.6714 7.17246 19.1273L8.06688 17.3384ZM7.73411 12.3433C6.75981 12.6431 5.96405 12.8869 5.37571 13.1261C4.82142 13.3515 4.21824 13.6575 3.87121 14.2129L5.56735 15.2727C5.54963 15.301 5.60773 15.1908 6.12899 14.9788C6.61619 14.7807 7.31024 14.5662 8.32228 14.2548L7.73411 12.3433ZM5.51678 15.8816C5.43425 15.6827 5.45298 15.4557 5.56735 15.2727L3.87121 14.2129C3.41438 14.944 3.3389 15.8514 3.6695 16.6481L5.51678 15.8816ZM18.3432 23.2965C18.2126 23.0352 18.0922 22.785 17.921 22.5629L16.3369 23.7839C16.3628 23.8174 16.39 23.8623 16.5543 24.1909L18.3432 23.2965ZM15.809 23.4455C16.1389 23.6105 16.1831 23.6372 16.2163 23.6628L17.4373 22.0788C17.215 21.9074 16.9635 21.7867 16.7034 21.6567L15.809 23.4455ZM17.921 22.5629C17.7821 22.3828 17.6201 22.2197 17.4373 22.0788L16.2163 23.6628C16.2604 23.6968 16.301 23.7373 16.3369 23.7839L17.921 22.5629ZM25.7451 31.6778C25.4337 32.6899 25.2192 33.3839 25.0211 33.871C24.8092 34.3922 24.699 34.4503 24.7273 34.4326L25.7871 36.1287C26.3425 35.7817 26.6485 35.1786 26.8739 34.6243C27.1131 34.036 27.3569 33.2403 27.6567 32.266L25.7451 31.6778ZM20.8726 32.8274C21.3286 33.7393 21.7001 34.4841 22.033 35.0252C22.3467 35.535 22.7478 36.0794 23.3525 36.3303L24.119 34.483C24.1497 34.4957 24.0312 34.4563 23.7364 33.9771C23.4608 33.5292 23.1349 32.8799 22.6615 31.933L20.8726 32.8274ZM24.7273 34.4326C24.5444 34.5469 24.3181 34.5656 24.119 34.483L23.3525 36.3303C24.1491 36.6608 25.0558 36.5857 25.7871 36.1287L24.7273 34.4326ZM34.4744 10.1083C34.7088 9.34663 34.906 8.70914 35.0137 8.19737C35.1191 7.69631 35.182 7.13715 34.9848 6.59976L33.1073 7.28901C33.1036 7.27908 33.1431 7.37406 33.0565 7.78567C32.9722 8.18657 32.809 8.72029 32.5628 9.52017L34.4744 10.1083ZM30.4799 7.43711C31.2798 7.191 31.8134 7.02783 32.2142 6.94357C32.6256 6.85707 32.7206 6.89654 32.7108 6.89294L33.4001 5.01546C32.8628 4.81821 32.3038 4.881 31.8027 4.98636C31.291 5.09395 30.6535 5.29116 29.8918 5.52555L30.4799 7.43711ZM34.9848 6.59976C34.7148 5.86427 34.1348 5.28518 33.4001 5.01546L32.7108 6.89294C32.895 6.96054 33.04 7.10561 33.1073 7.28901L34.9848 6.59976Z" fill="white"/>
</svg>
