<svg width="40" height="40" viewBox="0 0 40 40" fill="none" xmlns="http://www.w3.org/2000/svg">
<path d="M17.1793 22.8204L25.2562 14.7434M33.5185 9.81425L26.7008 31.9719C26.0896 33.9582 25.7841 34.9514 25.2571 35.2807C24.8 35.5663 24.2335 35.6132 23.7357 35.4066C23.1616 35.1684 22.6963 34.239 21.7669 32.3802L17.4486 23.7437C17.3012 23.4487 17.2273 23.3012 17.1288 23.1734C17.0414 23.06 16.9401 22.9582 16.8267 22.8708C16.6989 22.7723 16.551 22.6986 16.2561 22.5511L7.61955 18.2328C5.7607 17.3034 4.8312 16.8389 4.59302 16.2649C4.38645 15.767 4.43356 15.1999 4.71916 14.7428C5.04847 14.2157 6.04173 13.9102 8.02808 13.2991L30.1857 6.48132C31.7473 6.00083 32.5279 5.76055 33.0553 5.95419C33.5148 6.12286 33.8772 6.48493 34.0459 6.94437C34.2395 7.47184 33.999 8.25265 33.5185 9.81425Z" stroke="#505050" stroke-width="2" stroke-linecap="round" stroke-linejoin="round"/>
</svg>

